<mxfile host="65bd71144e" modified="2020-11-15T14:17:46.244Z" agent="5.0 (Macintosh; Intel Mac OS X 10_15_7) AppleWebKit/537.36 (KHTML, like Gecko) Code/1.51.1 Chrome/83.0.4103.122 Electron/9.3.3 Safari/537.36" etag="h-ltQQG3k1CrpJogQkX3" version="13.6.5">
    <diagram id="C5RBs43oDa-KdzZeNtuy" name="Page-1">
        <mxGraphModel dx="738" dy="489" grid="1" gridSize="10" guides="1" tooltips="1" connect="1" arrows="1" fold="1" page="1" pageScale="1" pageWidth="827" pageHeight="1169" math="0" shadow="0">
            <root>
                <mxCell id="WIyWlLk6GJQsqaUBKTNV-0"/>
                <mxCell id="WIyWlLk6GJQsqaUBKTNV-1" parent="WIyWlLk6GJQsqaUBKTNV-0"/>
                <mxCell id="WIyWlLk6GJQsqaUBKTNV-2" value="" style="rounded=0;html=1;jettySize=auto;orthogonalLoop=1;fontSize=11;endArrow=classicThin;endFill=1;endSize=8;strokeWidth=1;shadow=0;labelBackgroundColor=none;edgeStyle=orthogonalEdgeStyle;" parent="WIyWlLk6GJQsqaUBKTNV-1" source="WIyWlLk6GJQsqaUBKTNV-3" target="WIyWlLk6GJQsqaUBKTNV-6" edge="1">
                    <mxGeometry relative="1" as="geometry"/>
                </mxCell>
                <mxCell id="WIyWlLk6GJQsqaUBKTNV-3" value="Khách hàng đăng nhập" style="rounded=0;whiteSpace=wrap;html=1;fontSize=12;glass=0;strokeWidth=1;shadow=0;" parent="WIyWlLk6GJQsqaUBKTNV-1" vertex="1">
                    <mxGeometry x="94" y="65" width="120" height="40" as="geometry"/>
                </mxCell>
                <mxCell id="WIyWlLk6GJQsqaUBKTNV-4" value="" style="rounded=0;html=1;jettySize=auto;orthogonalLoop=1;fontSize=11;endArrow=classicThin;endFill=1;endSize=8;strokeWidth=1;shadow=0;labelBackgroundColor=none;edgeStyle=orthogonalEdgeStyle;" parent="WIyWlLk6GJQsqaUBKTNV-1" source="WIyWlLk6GJQsqaUBKTNV-6" edge="1">
                    <mxGeometry x="-0.25" relative="1" as="geometry">
                        <mxPoint as="offset"/>
                        <mxPoint x="154" y="275" as="targetPoint"/>
                    </mxGeometry>
                </mxCell>
                <mxCell id="1" value="Có" style="edgeLabel;html=1;align=center;verticalAlign=middle;resizable=0;points=[];" vertex="1" connectable="0" parent="WIyWlLk6GJQsqaUBKTNV-4">
                    <mxGeometry x="-0.1862" relative="1" as="geometry">
                        <mxPoint as="offset"/>
                    </mxGeometry>
                </mxCell>
                <mxCell id="WIyWlLk6GJQsqaUBKTNV-5" value="" style="edgeStyle=orthogonalEdgeStyle;rounded=0;html=1;jettySize=auto;orthogonalLoop=1;fontSize=11;endArrow=classicThin;endFill=1;endSize=8;strokeWidth=1;shadow=0;labelBackgroundColor=none;" parent="WIyWlLk6GJQsqaUBKTNV-1" source="WIyWlLk6GJQsqaUBKTNV-6" target="WIyWlLk6GJQsqaUBKTNV-7" edge="1">
                    <mxGeometry x="-0.2571" relative="1" as="geometry">
                        <mxPoint as="offset"/>
                    </mxGeometry>
                </mxCell>
                <mxCell id="0" value="Không" style="edgeLabel;html=1;align=center;verticalAlign=middle;resizable=0;points=[];" vertex="1" connectable="0" parent="WIyWlLk6GJQsqaUBKTNV-5">
                    <mxGeometry x="-0.2089" relative="1" as="geometry">
                        <mxPoint as="offset"/>
                    </mxGeometry>
                </mxCell>
                <mxCell id="WIyWlLk6GJQsqaUBKTNV-6" value="Có tài khoản?" style="rhombus;whiteSpace=wrap;html=1;shadow=0;fontFamily=Helvetica;fontSize=12;align=center;strokeWidth=1;spacing=6;spacingTop=-4;" parent="WIyWlLk6GJQsqaUBKTNV-1" vertex="1">
                    <mxGeometry x="104" y="150" width="100" height="80" as="geometry"/>
                </mxCell>
                <mxCell id="Rg75sLDSew1l800mO3VN-21" style="edgeStyle=orthogonalEdgeStyle;rounded=0;orthogonalLoop=1;jettySize=auto;html=1;" parent="WIyWlLk6GJQsqaUBKTNV-1" source="WIyWlLk6GJQsqaUBKTNV-7" edge="1">
                    <mxGeometry relative="1" as="geometry">
                        <mxPoint x="214" y="85" as="targetPoint"/>
                        <Array as="points">
                            <mxPoint x="334" y="85"/>
                        </Array>
                    </mxGeometry>
                </mxCell>
                <mxCell id="WIyWlLk6GJQsqaUBKTNV-7" value="Đăng ký" style="rounded=0;whiteSpace=wrap;html=1;fontSize=12;glass=0;strokeWidth=1;shadow=0;" parent="WIyWlLk6GJQsqaUBKTNV-1" vertex="1">
                    <mxGeometry x="274" y="170" width="120" height="40" as="geometry"/>
                </mxCell>
                <mxCell id="Rg75sLDSew1l800mO3VN-5" value="" style="edgeStyle=orthogonalEdgeStyle;rounded=0;orthogonalLoop=1;jettySize=auto;html=1;" parent="WIyWlLk6GJQsqaUBKTNV-1" source="Rg75sLDSew1l800mO3VN-1" target="Rg75sLDSew1l800mO3VN-4" edge="1">
                    <mxGeometry relative="1" as="geometry"/>
                </mxCell>
                <mxCell id="Rg75sLDSew1l800mO3VN-1" value="Trang chủ&lt;br&gt;Lựa chọn" style="rounded=0;whiteSpace=wrap;html=1;" parent="WIyWlLk6GJQsqaUBKTNV-1" vertex="1">
                    <mxGeometry x="94" y="275" width="120" height="60" as="geometry"/>
                </mxCell>
                <mxCell id="Rg75sLDSew1l800mO3VN-9" value="Chọn" style="edgeStyle=orthogonalEdgeStyle;rounded=0;orthogonalLoop=1;jettySize=auto;html=1;" parent="WIyWlLk6GJQsqaUBKTNV-1" source="Rg75sLDSew1l800mO3VN-4" target="Rg75sLDSew1l800mO3VN-8" edge="1">
                    <mxGeometry relative="1" as="geometry"/>
                </mxCell>
                <mxCell id="Rg75sLDSew1l800mO3VN-11" value="Không chọn" style="edgeStyle=orthogonalEdgeStyle;rounded=0;orthogonalLoop=1;jettySize=auto;html=1;" parent="WIyWlLk6GJQsqaUBKTNV-1" source="Rg75sLDSew1l800mO3VN-4" target="Rg75sLDSew1l800mO3VN-10" edge="1">
                    <mxGeometry relative="1" as="geometry"/>
                </mxCell>
                <mxCell id="Rg75sLDSew1l800mO3VN-4" value="Chọn &quot;Xem lịch chiếu&quot;" style="rhombus;whiteSpace=wrap;html=1;" parent="WIyWlLk6GJQsqaUBKTNV-1" vertex="1">
                    <mxGeometry x="104" y="375" width="100" height="100" as="geometry"/>
                </mxCell>
                <mxCell id="Rg75sLDSew1l800mO3VN-14" value="" style="edgeStyle=orthogonalEdgeStyle;rounded=0;orthogonalLoop=1;jettySize=auto;html=1;" parent="WIyWlLk6GJQsqaUBKTNV-1" source="Rg75sLDSew1l800mO3VN-8" target="Rg75sLDSew1l800mO3VN-12" edge="1">
                    <mxGeometry relative="1" as="geometry"/>
                </mxCell>
                <mxCell id="Rg75sLDSew1l800mO3VN-8" value="Lịch chiếu" style="whiteSpace=wrap;html=1;" parent="WIyWlLk6GJQsqaUBKTNV-1" vertex="1">
                    <mxGeometry x="274" y="395" width="120" height="60" as="geometry"/>
                </mxCell>
                <mxCell id="Rg75sLDSew1l800mO3VN-13" value="Chọn" style="edgeStyle=orthogonalEdgeStyle;rounded=0;orthogonalLoop=1;jettySize=auto;html=1;" parent="WIyWlLk6GJQsqaUBKTNV-1" source="Rg75sLDSew1l800mO3VN-10" target="Rg75sLDSew1l800mO3VN-12" edge="1">
                    <mxGeometry relative="1" as="geometry"/>
                </mxCell>
                <mxCell id="Rg75sLDSew1l800mO3VN-16" value="Không chọn" style="edgeStyle=orthogonalEdgeStyle;rounded=0;orthogonalLoop=1;jettySize=auto;html=1;" parent="WIyWlLk6GJQsqaUBKTNV-1" source="Rg75sLDSew1l800mO3VN-10" target="Rg75sLDSew1l800mO3VN-15" edge="1">
                    <mxGeometry relative="1" as="geometry"/>
                </mxCell>
                <mxCell id="Rg75sLDSew1l800mO3VN-10" value="Chọn &quot;Xem Thông tin phim&quot;" style="rhombus;whiteSpace=wrap;html=1;" parent="WIyWlLk6GJQsqaUBKTNV-1" vertex="1">
                    <mxGeometry x="104" y="525" width="100" height="100" as="geometry"/>
                </mxCell>
                <mxCell id="Rg75sLDSew1l800mO3VN-19" style="edgeStyle=orthogonalEdgeStyle;rounded=0;orthogonalLoop=1;jettySize=auto;html=1;entryX=0.5;entryY=0;entryDx=0;entryDy=0;" parent="WIyWlLk6GJQsqaUBKTNV-1" source="Rg75sLDSew1l800mO3VN-12" target="Rg75sLDSew1l800mO3VN-17" edge="1">
                    <mxGeometry relative="1" as="geometry"/>
                </mxCell>
                <mxCell id="Rg75sLDSew1l800mO3VN-12" value="Thông tin phim" style="whiteSpace=wrap;html=1;" parent="WIyWlLk6GJQsqaUBKTNV-1" vertex="1">
                    <mxGeometry x="274" y="545" width="120" height="60" as="geometry"/>
                </mxCell>
                <mxCell id="Rg75sLDSew1l800mO3VN-18" value="Chọn" style="edgeStyle=orthogonalEdgeStyle;rounded=0;orthogonalLoop=1;jettySize=auto;html=1;" parent="WIyWlLk6GJQsqaUBKTNV-1" source="Rg75sLDSew1l800mO3VN-15" target="Rg75sLDSew1l800mO3VN-17" edge="1">
                    <mxGeometry relative="1" as="geometry"/>
                </mxCell>
                <mxCell id="Rg75sLDSew1l800mO3VN-33" value="" style="edgeStyle=orthogonalEdgeStyle;rounded=0;orthogonalLoop=1;jettySize=auto;html=1;" parent="WIyWlLk6GJQsqaUBKTNV-1" source="Rg75sLDSew1l800mO3VN-15" target="Rg75sLDSew1l800mO3VN-32" edge="1">
                    <mxGeometry relative="1" as="geometry"/>
                </mxCell>
                <mxCell id="Rg75sLDSew1l800mO3VN-15" value="Chọn &quot;Đặt vé (Nhanh)&quot;" style="rhombus;whiteSpace=wrap;html=1;" parent="WIyWlLk6GJQsqaUBKTNV-1" vertex="1">
                    <mxGeometry x="104" y="705" width="100" height="100" as="geometry"/>
                </mxCell>
                <mxCell id="Rg75sLDSew1l800mO3VN-23" value="" style="edgeStyle=orthogonalEdgeStyle;rounded=0;orthogonalLoop=1;jettySize=auto;html=1;" parent="WIyWlLk6GJQsqaUBKTNV-1" source="Rg75sLDSew1l800mO3VN-17" target="Rg75sLDSew1l800mO3VN-22" edge="1">
                    <mxGeometry relative="1" as="geometry"/>
                </mxCell>
                <mxCell id="Rg75sLDSew1l800mO3VN-17" value="Đặt vé" style="whiteSpace=wrap;html=1;" parent="WIyWlLk6GJQsqaUBKTNV-1" vertex="1">
                    <mxGeometry x="274" y="725" width="120" height="60" as="geometry"/>
                </mxCell>
                <mxCell id="Rg75sLDSew1l800mO3VN-25" value="" style="edgeStyle=orthogonalEdgeStyle;rounded=0;orthogonalLoop=1;jettySize=auto;html=1;" parent="WIyWlLk6GJQsqaUBKTNV-1" source="Rg75sLDSew1l800mO3VN-22" target="Rg75sLDSew1l800mO3VN-24" edge="1">
                    <mxGeometry relative="1" as="geometry"/>
                </mxCell>
                <mxCell id="Rg75sLDSew1l800mO3VN-22" value="Chọn ghế" style="whiteSpace=wrap;html=1;" parent="WIyWlLk6GJQsqaUBKTNV-1" vertex="1">
                    <mxGeometry x="474" y="725" width="120" height="60" as="geometry"/>
                </mxCell>
                <mxCell id="Rg75sLDSew1l800mO3VN-27" value="" style="edgeStyle=orthogonalEdgeStyle;rounded=0;orthogonalLoop=1;jettySize=auto;html=1;" parent="WIyWlLk6GJQsqaUBKTNV-1" source="Rg75sLDSew1l800mO3VN-24" target="Rg75sLDSew1l800mO3VN-26" edge="1">
                    <mxGeometry relative="1" as="geometry"/>
                </mxCell>
                <mxCell id="Rg75sLDSew1l800mO3VN-24" value="Thanh toán" style="whiteSpace=wrap;html=1;" parent="WIyWlLk6GJQsqaUBKTNV-1" vertex="1">
                    <mxGeometry x="474" y="545" width="120" height="60" as="geometry"/>
                </mxCell>
                <mxCell id="Rg75sLDSew1l800mO3VN-29" value="Có" style="edgeStyle=orthogonalEdgeStyle;rounded=0;orthogonalLoop=1;jettySize=auto;html=1;" parent="WIyWlLk6GJQsqaUBKTNV-1" source="Rg75sLDSew1l800mO3VN-26" target="Rg75sLDSew1l800mO3VN-28" edge="1">
                    <mxGeometry relative="1" as="geometry"/>
                </mxCell>
                <mxCell id="Rg75sLDSew1l800mO3VN-30" style="edgeStyle=orthogonalEdgeStyle;rounded=0;orthogonalLoop=1;jettySize=auto;html=1;entryX=1;entryY=0.5;entryDx=0;entryDy=0;" parent="WIyWlLk6GJQsqaUBKTNV-1" source="Rg75sLDSew1l800mO3VN-26" target="Rg75sLDSew1l800mO3VN-1" edge="1">
                    <mxGeometry relative="1" as="geometry">
                        <Array as="points">
                            <mxPoint x="534" y="305"/>
                        </Array>
                    </mxGeometry>
                </mxCell>
                <mxCell id="Rg75sLDSew1l800mO3VN-31" value="Không" style="edgeLabel;html=1;align=center;verticalAlign=middle;resizable=0;points=[];" parent="Rg75sLDSew1l800mO3VN-30" vertex="1" connectable="0">
                    <mxGeometry x="-0.64" y="-2" relative="1" as="geometry">
                        <mxPoint x="-2" y="22" as="offset"/>
                    </mxGeometry>
                </mxCell>
                <mxCell id="Rg75sLDSew1l800mO3VN-26" value="Thành công?" style="rhombus;whiteSpace=wrap;html=1;" parent="WIyWlLk6GJQsqaUBKTNV-1" vertex="1">
                    <mxGeometry x="494" y="385" width="80" height="80" as="geometry"/>
                </mxCell>
                <mxCell id="Rg75sLDSew1l800mO3VN-28" value="Xuất hóa đơn&lt;br&gt;Lưu lịch sử mua vé" style="whiteSpace=wrap;html=1;" parent="WIyWlLk6GJQsqaUBKTNV-1" vertex="1">
                    <mxGeometry x="634" y="395" width="120" height="60" as="geometry"/>
                </mxCell>
                <mxCell id="Rg75sLDSew1l800mO3VN-35" value="Chọn" style="edgeStyle=orthogonalEdgeStyle;rounded=0;orthogonalLoop=1;jettySize=auto;html=1;" parent="WIyWlLk6GJQsqaUBKTNV-1" source="Rg75sLDSew1l800mO3VN-32" target="Rg75sLDSew1l800mO3VN-34" edge="1">
                    <mxGeometry relative="1" as="geometry"/>
                </mxCell>
                <mxCell id="Rg75sLDSew1l800mO3VN-37" value="Không chọn" style="edgeStyle=orthogonalEdgeStyle;rounded=0;orthogonalLoop=1;jettySize=auto;html=1;" parent="WIyWlLk6GJQsqaUBKTNV-1" source="Rg75sLDSew1l800mO3VN-32" target="Rg75sLDSew1l800mO3VN-36" edge="1">
                    <mxGeometry relative="1" as="geometry"/>
                </mxCell>
                <mxCell id="Rg75sLDSew1l800mO3VN-40" value="Không chọn" style="edgeStyle=orthogonalEdgeStyle;rounded=0;orthogonalLoop=1;jettySize=auto;html=1;" parent="WIyWlLk6GJQsqaUBKTNV-1" source="Rg75sLDSew1l800mO3VN-32" target="Rg75sLDSew1l800mO3VN-15" edge="1">
                    <mxGeometry relative="1" as="geometry"/>
                </mxCell>
                <mxCell id="Rg75sLDSew1l800mO3VN-32" value="Chọn &quot;Xem khuyến mãi&quot;" style="rhombus;whiteSpace=wrap;html=1;" parent="WIyWlLk6GJQsqaUBKTNV-1" vertex="1">
                    <mxGeometry x="104" y="855" width="100" height="100" as="geometry"/>
                </mxCell>
                <mxCell id="Rg75sLDSew1l800mO3VN-34" value="Thông tin khuyến mãi" style="whiteSpace=wrap;html=1;" parent="WIyWlLk6GJQsqaUBKTNV-1" vertex="1">
                    <mxGeometry x="274" y="875" width="120" height="60" as="geometry"/>
                </mxCell>
                <mxCell id="Rg75sLDSew1l800mO3VN-39" value="Chọn" style="edgeStyle=orthogonalEdgeStyle;rounded=0;orthogonalLoop=1;jettySize=auto;html=1;" parent="WIyWlLk6GJQsqaUBKTNV-1" source="Rg75sLDSew1l800mO3VN-36" target="Rg75sLDSew1l800mO3VN-38" edge="1">
                    <mxGeometry relative="1" as="geometry"/>
                </mxCell>
                <mxCell id="Rg75sLDSew1l800mO3VN-41" style="edgeStyle=orthogonalEdgeStyle;rounded=0;orthogonalLoop=1;jettySize=auto;html=1;entryX=0;entryY=0.5;entryDx=0;entryDy=0;" parent="WIyWlLk6GJQsqaUBKTNV-1" source="Rg75sLDSew1l800mO3VN-36" target="Rg75sLDSew1l800mO3VN-1" edge="1">
                    <mxGeometry relative="1" as="geometry">
                        <Array as="points">
                            <mxPoint x="74" y="1055"/>
                            <mxPoint x="74" y="305"/>
                        </Array>
                    </mxGeometry>
                </mxCell>
                <mxCell id="Rg75sLDSew1l800mO3VN-43" value="Không chọn" style="edgeLabel;html=1;align=center;verticalAlign=middle;resizable=0;points=[];" parent="Rg75sLDSew1l800mO3VN-41" vertex="1" connectable="0">
                    <mxGeometry x="0.0667" y="-1" relative="1" as="geometry">
                        <mxPoint as="offset"/>
                    </mxGeometry>
                </mxCell>
                <mxCell id="Rg75sLDSew1l800mO3VN-36" value="Chọn &quot;Vé của tôii&quot;" style="rhombus;whiteSpace=wrap;html=1;" parent="WIyWlLk6GJQsqaUBKTNV-1" vertex="1">
                    <mxGeometry x="104" y="1005" width="100" height="100" as="geometry"/>
                </mxCell>
                <mxCell id="Rg75sLDSew1l800mO3VN-38" value="Lịch sử mua vé&lt;br&gt;Hủy vé" style="whiteSpace=wrap;html=1;" parent="WIyWlLk6GJQsqaUBKTNV-1" vertex="1">
                    <mxGeometry x="274" y="1025" width="120" height="60" as="geometry"/>
                </mxCell>
            </root>
        </mxGraphModel>
    </diagram>
</mxfile>